<svg width="73" height="73" viewBox="0 0 73 73" fill="none" xmlns="http://www.w3.org/2000/svg">
    <path fill-rule="evenodd" clip-rule="evenodd"
          d="M25.0938 39.5417C25.0938 33.2422 30.2005 28.1355 36.5 28.1355C42.7995 28.1355 47.9063 33.2422 47.9063 39.5417C47.9063 45.8412 42.7995 50.948 36.5 50.948C30.2005 50.948 25.0938 45.8412 25.0938 39.5417ZM36.5 32.698C32.7203 32.698 29.6563 35.762 29.6563 39.5417C29.6563 43.3214 32.7203 46.3855 36.5 46.3855C40.2797 46.3855 43.3438 43.3214 43.3438 39.5417C43.3438 35.762 40.2797 32.698 36.5 32.698Z"
          fill="#457B9D"/>
    <path fill-rule="evenodd" clip-rule="evenodd"
          d="M32.2907 17.4896C29.1117 17.4896 26.5345 20.0668 26.5345 23.2458C26.5345 25.2715 24.9796 26.9578 22.9606 27.1218L16.1789 27.6726C14.8473 27.7807 13.7522 28.7654 13.5037 30.078C12.1388 37.2867 12.037 44.6779 13.2029 51.9215L13.4987 53.7593C13.7781 55.4949 15.2066 56.8153 16.9587 56.9576L22.8666 57.4374C31.9406 58.1743 41.0594 58.1743 50.1334 57.4374L56.0413 56.9576C57.7934 56.8153 59.2219 55.4949 59.5013 53.7593L59.7971 51.9215C60.963 44.6779 60.8612 37.2867 59.4963 30.078C59.2478 28.7654 58.1527 27.7807 56.8211 27.6726L50.0394 27.1218C48.0204 26.9578 46.4655 25.2715 46.4655 23.2458C46.4655 20.0668 43.8883 17.4896 40.7093 17.4896H32.2907ZM21.9905 22.6231C22.3125 17.2142 26.801 12.9271 32.2907 12.9271H40.7093C46.199 12.9271 50.6875 17.2142 51.0095 22.6231L57.1904 23.125C60.5695 23.3995 63.3484 25.8982 63.9791 29.2292C65.4424 36.9573 65.5515 44.881 64.3016 52.6465L64.0058 54.4843C63.3926 58.2942 60.2569 61.1928 56.4106 61.5051L50.5027 61.9849C41.1829 62.7418 31.8171 62.7418 22.4973 61.9849L16.5894 61.5051C12.7431 61.1928 9.60745 58.2942 8.99421 54.4843L8.69841 52.6465C7.44849 44.881 7.55759 36.9573 9.02086 29.2292C9.65156 25.8982 12.4305 23.3995 15.8096 23.125L21.9905 22.6231Z"
          fill="#457B9D"/>
</svg>
