<svg width="226" height="25" viewBox="0 0 226 25" fill="none" xmlns="http://www.w3.org/2000/svg">
<rect x="51" y="11" width="164" height="2" fill="#A8DADC"/>
<rect x="19" y="11" width="108" height="2" fill="#457B9D"/>
<circle cx="11.5" cy="12.5" r="11.5" fill="#457B9D"/>
<path fill-rule="evenodd" clip-rule="evenodd" d="M17.2789 8.63764C17.5596 8.91833 17.5596 9.37342 17.2789 9.65411L10.5706 16.3624C10.2899 16.6431 9.83479 16.6431 9.5541 16.3624L5.72077 12.5291C5.44008 12.2484 5.44008 11.7933 5.72077 11.5126C6.00146 11.232 6.45655 11.232 6.73724 11.5126L10.0623 14.8377L16.2624 8.63764C16.5431 8.35695 16.9982 8.35695 17.2789 8.63764Z" fill="#A8DADC"/>
<path fill-rule="evenodd" clip-rule="evenodd" d="M58.2789 7.96967C58.5596 8.26256 58.5596 8.73744 58.2789 9.03033L51.5706 16.0303C51.2899 16.3232 50.8348 16.3232 50.5541 16.0303L46.7208 12.0303C46.4401 11.7374 46.4401 11.2626 46.7208 10.9697C47.0015 10.6768 47.4565 10.6768 47.7372 10.9697L51.0623 14.4393L57.2624 7.96967C57.5431 7.67678 57.9982 7.67678 58.2789 7.96967Z" fill="#A8DADC"/>
<ellipse cx="52.5" cy="12.0227" rx="11.5" ry="12.0227" fill="#457B9D"/>
<circle cx="92.5" cy="12.5" r="11.5" fill="#457B9D"/>
<circle cx="133.5" cy="12.5" r="11.5" fill="#457B9D"/>
<ellipse cx="174.5" cy="12.0227" rx="11.5" ry="12.0227" fill="#A8DADC"/>
<circle cx="214.5" cy="12.5" r="11.5" fill="#A8DADC"/>
<path fill-rule="evenodd" clip-rule="evenodd" d="M58.2789 8.63764C58.5596 8.91833 58.5596 9.37342 58.2789 9.65411L51.5706 16.3624C51.2899 16.6431 50.8348 16.6431 50.5541 16.3624L46.7208 12.5291C46.4401 12.2484 46.4401 11.7933 46.7208 11.5126C47.0015 11.232 47.4565 11.232 47.7372 11.5126L51.0623 14.8377L57.2624 8.63764C57.5431 8.35695 57.9982 8.35695 58.2789 8.63764Z" fill="#A8DADC"/>
<path fill-rule="evenodd" clip-rule="evenodd" d="M98.2789 8.63764C98.5596 8.91833 98.5596 9.37342 98.2789 9.65411L91.5706 16.3624C91.2899 16.6431 90.8348 16.6431 90.5541 16.3624L86.7208 12.5291C86.4401 12.2484 86.4401 11.7933 86.7208 11.5126C87.0015 11.232 87.4565 11.232 87.7372 11.5126L91.0623 14.8377L97.2624 8.63764C97.5431 8.35695 97.9982 8.35695 98.2789 8.63764Z" fill="#A8DADC"/>
<path fill-rule="evenodd" clip-rule="evenodd" d="M139.279 8.63764C139.56 8.91833 139.56 9.37342 139.279 9.65411L132.571 16.3624C132.29 16.6431 131.835 16.6431 131.554 16.3624L127.721 12.5291C127.44 12.2484 127.44 11.7933 127.721 11.5126C128.001 11.232 128.457 11.232 128.737 11.5126L132.062 14.8377L138.262 8.63764C138.543 8.35695 138.998 8.35695 139.279 8.63764Z" fill="#A8DADC"/>
</svg>
