<svg width="226" height="25" viewBox="0 0 226 25" fill="none" xmlns="http://www.w3.org/2000/svg">
<rect x="19" y="11" width="196" height="2" fill="#A8DADC"/>
<circle cx="11.5" cy="12.5" r="11.5" fill="#457B9D"/>
<path fill-rule="evenodd" clip-rule="evenodd" d="M17.2789 8.63764C17.5596 8.91833 17.5596 9.37342 17.2789 9.65411L10.5706 16.3624C10.2899 16.6431 9.83479 16.6431 9.5541 16.3624L5.72077 12.5291C5.44008 12.2484 5.44008 11.7933 5.72077 11.5126C6.00146 11.232 6.45655 11.232 6.73724 11.5126L10.0623 14.8377L16.2624 8.63764C16.5431 8.35695 16.9982 8.35695 17.2789 8.63764Z" fill="#A8DADC"/>
<path fill-rule="evenodd" clip-rule="evenodd" d="M58.2789 7.96967C58.5596 8.26256 58.5596 8.73744 58.2789 9.03033L51.5706 16.0303C51.2899 16.3232 50.8348 16.3232 50.5541 16.0303L46.7208 12.0303C46.4401 11.7374 46.4401 11.2626 46.7208 10.9697C47.0015 10.6768 47.4565 10.6768 47.7372 10.9697L51.0623 14.4393L57.2624 7.96967C57.5431 7.67678 57.9982 7.67678 58.2789 7.96967Z" fill="#A8DADC"/>
<ellipse cx="52.5" cy="12.0227" rx="11.5" ry="12.0227" fill="#A8DADC"/>
<circle cx="92.5" cy="12.5" r="11.5" fill="#A8DADC"/>
<circle cx="133.5" cy="12.5" r="11.5" fill="#A8DADC"/>
<ellipse cx="174.5" cy="12.0227" rx="11.5" ry="12.0227" fill="#A8DADC"/>
<circle cx="214.5" cy="12.5" r="11.5" fill="#A8DADC"/>
</svg>
