<svg width="267" height="25" viewBox="0 0 267 25" fill="none" xmlns="http://www.w3.org/2000/svg">
    <rect x="19" y="11" width="240" height="2" fill="#A8DADC"/>
    <circle cx="11.5" cy="12.5" r="11.5" fill="#457B9D"/>
    <path fill-rule="evenodd" clip-rule="evenodd"
          d="M17.2791 8.63764C17.5598 8.91833 17.5598 9.37342 17.2791 9.65411L10.5708 16.3624C10.2901 16.6431 9.83504 16.6431 9.55435 16.3624L5.72102 12.5291C5.44033 12.2484 5.44033 11.7933 5.72102 11.5126C6.0017 11.232 6.45679 11.232 6.73748 11.5126L10.0626 14.8377L16.2627 8.63764C16.5434 8.35695 16.9985 8.35695 17.2791 8.63764Z"
          fill="#A8DADC"/>
    <path fill-rule="evenodd" clip-rule="evenodd"
          d="M58.2791 7.96967C58.5598 8.26256 58.5598 8.73744 58.2791 9.03033L51.5708 16.0303C51.2901 16.3232 50.835 16.3232 50.5543 16.0303L46.721 12.0303C46.4403 11.7374 46.4403 11.2626 46.721 10.9697C47.0017 10.6768 47.4568 10.6768 47.7375 10.9697L51.0626 14.4393L57.2627 7.96967C57.5434 7.67678 57.9985 7.67678 58.2791 7.96967Z"
          fill="#A8DADC"/>
    <ellipse cx="52.5" cy="12.0227" rx="11.5" ry="12.0227" fill="#A8DADC"/>
    <circle cx="92.5" cy="12.5" r="11.5" fill="#A8DADC"/>
    <circle cx="133.5" cy="12.5" r="11.5" fill="#A8DADC"/>
    <ellipse cx="174.5" cy="12.0227" rx="11.5" ry="12.0227" fill="#A8DADC"/>
    <circle cx="214.5" cy="12.5" r="11.5" fill="#A8DADC"/>
    <circle cx="255.5" cy="12.5" r="11.5" fill="#A8DADC"/>
</svg>
