<svg width="73" height="73" viewBox="0 0 73 73" fill="none" xmlns="http://www.w3.org/2000/svg">
    <path d="M42.5833 27.3747C42.5833 24.8549 44.626 22.8122 47.1458 22.8122C49.6656 22.8122 51.7083 24.8549 51.7083 27.3747C51.7083 29.8945 49.6656 31.9372 47.1458 31.9372C44.626 31.9372 42.5833 29.8945 42.5833 27.3747Z"
          fill="#457B9D"/>
    <path fill-rule="evenodd" clip-rule="evenodd"
          d="M22.1054 14.1695C31.6838 13.3369 41.3163 13.3369 50.8946 14.1695L55.4883 14.5688C59.8837 14.9509 63.4445 18.2957 64.1005 22.6586C65.4804 31.8344 65.4804 41.165 64.1005 50.3409C63.4445 54.7038 59.8837 58.0486 55.4883 58.4306L50.8946 58.83C41.3163 59.6626 31.6837 59.6626 22.1054 58.83L17.5118 58.4306C13.1164 58.0486 9.55557 54.7038 8.89949 50.3409C7.51967 41.165 7.51967 31.8344 8.89949 22.6586C9.55557 18.2957 13.1164 14.9509 17.5118 14.5688L22.1054 14.1695ZM50.4995 18.7149C41.1841 17.9051 31.816 17.9051 22.5005 18.7149L17.9069 19.1142C15.6125 19.3136 13.7537 21.0596 13.4113 23.3371C12.6279 28.5463 12.3122 33.8079 12.4641 39.0594L24.2411 27.2825C24.6853 26.8382 25.2931 26.5969 25.9212 26.6153C26.5492 26.6338 27.1418 26.9104 27.5592 27.38L38.7265 39.9432L46.4244 37.3772C47.2853 37.0903 48.2344 37.3408 48.8414 38.0153L59.5454 49.9087C59.5619 49.8273 59.5763 49.7452 59.5888 49.6624C60.901 40.9363 60.901 32.0631 59.5888 23.3371C59.2463 21.0596 57.3876 19.3136 55.0931 19.1142L50.4995 18.7149ZM56.6363 53.4965L46.4497 42.1781L38.7422 44.7473C37.8765 45.0358 36.9221 44.7807 36.3158 44.0987L25.7565 32.2194L12.8486 45.1273C12.997 46.6424 13.1845 48.1546 13.4113 49.6624C13.7537 51.9399 15.6125 53.6858 17.9069 53.8853L22.5005 54.2846C31.8159 55.0944 41.1841 55.0944 50.4995 54.2846L55.0931 53.8853C55.6368 53.838 56.156 53.7039 56.6363 53.4965Z"
          fill="#457B9D"/>
</svg>
