<svg width="50" height="50" viewBox="0 0 50 50" fill="none" xmlns="http://www.w3.org/2000/svg">
    <path fill-rule="evenodd" clip-rule="evenodd"
          d="M29.6874 11.4583C29.6874 7.71891 32.7188 4.6875 36.4583 4.6875C40.1977 4.6875 43.2291 7.71891 43.2291 11.4583C43.2291 15.1978 40.1977 18.2292 36.4583 18.2292C34.459 18.2292 32.6622 17.3627 31.4228 15.9848L25.7617 19.0726L19.4273 22.6923C19.9906 23.68 20.3124 24.8233 20.3124 26.0417C20.3124 26.6591 20.2298 27.2572 20.075 27.8255L31.4228 34.0152C32.6622 32.6373 34.459 31.7708 36.4583 31.7708C40.1977 31.7708 43.2291 34.8022 43.2291 38.5417C43.2291 42.2811 40.1977 45.3125 36.4583 45.3125C32.7188 45.3125 29.6874 42.2811 29.6874 38.5417C29.6874 37.9243 29.7701 37.3262 29.9249 36.7578L18.5771 30.5681C17.3377 31.946 15.5408 32.8125 13.5416 32.8125C9.80216 32.8125 6.77075 29.7811 6.77075 26.0417C6.77075 22.3022 9.80216 19.2708 13.5416 19.2708C14.8972 19.2708 16.1597 19.6692 17.2185 20.3553L24.2381 16.344L29.9249 13.2422C29.7701 12.6738 29.6874 12.0757 29.6874 11.4583ZM36.4583 7.8125C34.4447 7.8125 32.8124 9.44479 32.8124 11.4583C32.8124 13.4719 34.4447 15.1042 36.4583 15.1042C38.4718 15.1042 40.1041 13.4719 40.1041 11.4583C40.1041 9.44479 38.4718 7.8125 36.4583 7.8125ZM13.5416 22.3958C11.528 22.3958 9.89575 24.0281 9.89575 26.0417C9.89575 28.0552 11.528 29.6875 13.5416 29.6875C15.5551 29.6875 17.1874 28.0552 17.1874 26.0417C17.1874 24.0281 15.5551 22.3958 13.5416 22.3958ZM32.8124 38.5417C32.8124 36.5281 34.4447 34.8958 36.4583 34.8958C38.4718 34.8958 40.1041 36.5281 40.1041 38.5417C40.1041 40.5552 38.4718 42.1875 36.4583 42.1875C34.4447 42.1875 32.8124 40.5552 32.8124 38.5417Z"
          fill="#457B9D"/>
</svg>
